<svg xmlns:xlink="http://www.w3.org/1999/xlink" xmlns="http://www.w3.org/2000/svg" height="18" viewBox="0 0 102.77777777777777 16" aria-hidden="true" width="116" ><defs><symbol id="oke-star-filled" style="overflow:visible;"><path id="star-rounded--filled" fill="#C6A1DC" stroke="var(--oke-stars-borderColor)" stroke-width="0px" d="M16.6744 7.11837C16.9845 6.8136 17.0731 6.45442 16.9402 6.04082C16.8073 5.62721 16.5193 5.38776 16.0762 5.32245L11.4906 4.66939L9.46364 0.587755C9.26427 0.195916 8.94306 0 8.5 0C8.05694 0 7.73573 0.195916 7.53636 0.587755L5.50938 4.66939L0.923769 5.32245C0.480712 5.38776 0.19273 5.62721 0.0598129 6.04082C-0.0731041 6.45442 0.0155059 6.8136 0.325646 7.11837L3.64855 10.2857L2.85106 14.7918C2.7846 15.2054 2.92859 15.5429 3.28303 15.8041C3.46026 15.9347 3.67071 16 3.91439 16C4.09161 16 4.25775 15.9565 4.41282 15.8694L8.5 13.7469L12.5872 15.8694C12.7422 15.9565 12.9084 16 13.0856 16C13.3293 16 13.5397 15.9347 13.717 15.8041C14.0714 15.5429 14.2154 15.2054 14.1489 14.7918L13.3514 10.2857L16.6744 7.11837Z"></path></symbol><symbol id="oke-star-filled" style="overflow:visible;"><path id="star-rounded--filled" fill="#21F06E" stroke="var(--oke-stars-borderColor)" stroke-width="0px" d="M16.6744 7.11837C16.9845 6.8136 17.0731 6.45442 16.9402 6.04082C16.8073 5.62721 16.5193 5.38776 16.0762 5.32245L11.4906 4.66939L9.46364 0.587755C9.26427 0.195916 8.94306 0 8.5 0C8.05694 0 7.73573 0.195916 7.53636 0.587755L5.50938 4.66939L0.923769 5.32245C0.480712 5.38776 0.19273 5.62721 0.0598129 6.04082C-0.0731041 6.45442 0.0155059 6.8136 0.325646 7.11837L3.64855 10.2857L2.85106 14.7918C2.7846 15.2054 2.92859 15.5429 3.28303 15.8041C3.46026 15.9347 3.67071 16 3.91439 16C4.09161 16 4.25775 15.9565 4.41282 15.8694L8.5 13.7469L12.5872 15.8694C12.7422 15.9565 12.9084 16 13.0856 16C13.3293 16 13.5397 15.9347 13.717 15.8041C14.0714 15.5429 14.2154 15.2054 14.1489 14.7918L13.3514 10.2857L16.6744 7.11837Z"></path></symbol><symbol id="oke-star-filled" style="overflow:visible;"><path id="star-rounded--filled" fill="#21F06E" stroke="var(--oke-stars-borderColor)" stroke-width="0px" d="M16.6744 7.11837C16.9845 6.8136 17.0731 6.45442 16.9402 6.04082C16.8073 5.62721 16.5193 5.38776 16.0762 5.32245L11.4906 4.66939L9.46364 0.587755C9.26427 0.195916 8.94306 0 8.5 0C8.05694 0 7.73573 0.195916 7.53636 0.587755L5.50938 4.66939L0.923769 5.32245C0.480712 5.38776 0.19273 5.62721 0.0598129 6.04082C-0.0731041 6.45442 0.0155059 6.8136 0.325646 7.11837L3.64855 10.2857L2.85106 14.7918C2.7846 15.2054 2.92859 15.5429 3.28303 15.8041C3.46026 15.9347 3.67071 16 3.91439 16C4.09161 16 4.25775 15.9565 4.41282 15.8694L8.5 13.7469L12.5872 15.8694C12.7422 15.9565 12.9084 16 13.0856 16C13.3293 16 13.5397 15.9347 13.717 15.8041C14.0714 15.5429 14.2154 15.2054 14.1489 14.7918L13.3514 10.2857L16.6744 7.11837Z"></path></symbol><symbol id="oke-star-filled" style="overflow:visible;"><path id="star-rounded--filled" fill="#21F06E" stroke="var(--oke-stars-borderColor)" stroke-width="0px" d="M16.6744 7.11837C16.9845 6.8136 17.0731 6.45442 16.9402 6.04082C16.8073 5.62721 16.5193 5.38776 16.0762 5.32245L11.4906 4.66939L9.46364 0.587755C9.26427 0.195916 8.94306 0 8.5 0C8.05694 0 7.73573 0.195916 7.53636 0.587755L5.50938 4.66939L0.923769 5.32245C0.480712 5.38776 0.19273 5.62721 0.0598129 6.04082C-0.0731041 6.45442 0.0155059 6.8136 0.325646 7.11837L3.64855 10.2857L2.85106 14.7918C2.7846 15.2054 2.92859 15.5429 3.28303 15.8041C3.46026 15.9347 3.67071 16 3.91439 16C4.09161 16 4.25775 15.9565 4.41282 15.8694L8.5 13.7469L12.5872 15.8694C12.7422 15.9565 12.9084 16 13.0856 16C13.3293 16 13.5397 15.9347 13.717 15.8041C14.0714 15.5429 14.2154 15.2054 14.1489 14.7918L13.3514 10.2857L16.6744 7.11837Z"></path></symbol><symbol id="oke-star-filled" style="overflow:visible;"><path id="star-rounded--filled" fill="#21F06E" stroke="var(--oke-stars-borderColor)" stroke-width="0px" d="M16.6744 7.11837C16.9845 6.8136 17.0731 6.45442 16.9402 6.04082C16.8073 5.62721 16.5193 5.38776 16.0762 5.32245L11.4906 4.66939L9.46364 0.587755C9.26427 0.195916 8.94306 0 8.5 0C8.05694 0 7.73573 0.195916 7.53636 0.587755L5.50938 4.66939L0.923769 5.32245C0.480712 5.38776 0.19273 5.62721 0.0598129 6.04082C-0.0731041 6.45442 0.0155059 6.8136 0.325646 7.11837L3.64855 10.2857L2.85106 14.7918C2.7846 15.2054 2.92859 15.5429 3.28303 15.8041C3.46026 15.9347 3.67071 16 3.91439 16C4.09161 16 4.25775 15.9565 4.41282 15.8694L8.5 13.7469L12.5872 15.8694C12.7422 15.9565 12.9084 16 13.0856 16C13.3293 16 13.5397 15.9347 13.717 15.8041C14.0714 15.5429 14.2154 15.2054 14.1489 14.7918L13.3514 10.2857L16.6744 7.11837Z"></path></symbol></defs><use x="0" href="#oke-star-filled"></use><use x="21.444444444444443" href="#oke-star-filled"></use><use x="42.888888888888886" href="#oke-star-filled"></use><use x="64.33333333333333" href="#oke-star-filled"></use><use x="85.77777777777777" href="#oke-star-filled"></use></svg>